<svg xmlns="http://www.w3.org/2000/svg" viewBox="0 0 32 32">
  <rect width="32" height="32" rx="6" fill="#1B4E4D"/>
  <rect x="6" y="6" width="20" height="20" rx="3" fill="none" stroke="white" stroke-width="1.5"/>
  <rect x="9" y="9" width="6" height="4" rx="1" fill="white"/>
  <rect x="17" y="9" width="2.5" height="2.5" rx="0.5" fill="#D3FEAB"/>
  <rect x="20.5" y="9" width="2.5" height="2.5" rx="0.5" fill="#D3FEAB"/>
  <rect x="9" y="15" width="2.5" height="2.5" rx="0.5" fill="white"/>
  <rect x="12.5" y="15" width="2.5" height="2.5" rx="0.5" fill="white"/>
  <rect x="17" y="15" width="2.5" height="2.5" rx="0.5" fill="white"/>
  <rect x="20.5" y="15" width="2.5" height="2.5" rx="0.5" fill="white"/>
  <rect x="9" y="19" width="2.5" height="2.5" rx="0.5" fill="white"/>
  <rect x="12.5" y="19" width="2.5" height="2.5" rx="0.5" fill="white"/>
  <rect x="17" y="19" width="2.5" height="2.5" rx="0.5" fill="white"/>
  <rect x="20.5" y="19" width="2.5" height="2.5" rx="0.5" fill="#D3FEAB"/>
</svg>
